<svg width="18" height="20" viewBox="0 0 18 20" fill="none" xmlns="http://www.w3.org/2000/svg">
<path d="M16.1665 0.249945C15.7245 0.249945 15.3006 0.42115 14.988 0.725897C14.6754 1.03064 14.4998 1.44397 14.4998 1.87494V8.08244L14.2665 7.83869L5.76651 0.997445C5.25479 0.597685 4.63818 0.346122 3.98695 0.271422C3.33573 0.196723 2.67608 0.301892 2.08317 0.574944C1.58347 0.8082 1.16173 1.17466 0.866772 1.63192C0.571816 2.08918 0.415705 2.61852 0.416507 3.15869V16.8412C0.415705 17.3814 0.571816 17.9107 0.866772 18.368C1.16173 18.8252 1.58347 19.1917 2.08317 19.4249C2.55962 19.6362 3.07645 19.7469 3.59984 19.7499C4.38869 19.7509 5.15381 19.4869 5.76651 19.0024L14.2665 12.1612L14.4998 11.9174V18.1249C14.4998 18.5559 14.6754 18.9692 14.988 19.274C15.3006 19.5787 15.7245 19.7499 16.1665 19.7499C16.6085 19.7499 17.0325 19.5787 17.345 19.274C17.6576 18.9692 17.8332 18.5559 17.8332 18.1249V1.87494C17.8332 1.44397 17.6576 1.03064 17.345 0.725897C17.0325 0.42115 16.6085 0.249945 16.1665 0.249945Z" fill="#2D2D2D"/>
</svg>
