<svg width="18" height="21" viewBox="0 0 18 21" fill="none" xmlns="http://www.w3.org/2000/svg">
<path d="M1.66638 20.2501C2.10841 20.2501 2.53233 20.0789 2.84489 19.7741C3.15745 19.4694 3.33305 19.056 3.33305 18.6251L3.33305 12.4176L3.56638 12.6613L12.0664 19.5026C12.5781 19.9023 13.1947 20.1539 13.8459 20.2286C14.4972 20.3033 15.1568 20.1981 15.7497 19.9251C16.2494 19.6918 16.6712 19.3253 16.9661 18.8681C17.2611 18.4108 17.4172 17.8815 17.4164 17.3413L17.4164 3.65881C17.4172 3.11864 17.2611 2.58929 16.9661 2.13203C16.6712 1.67478 16.2494 1.30831 15.7497 1.07506C15.2733 0.863812 14.7564 0.753061 14.233 0.750058C13.4442 0.749138 12.6791 1.0131 12.0664 1.49756L3.56638 8.33881L3.33305 8.58256V2.37506C3.33305 1.94408 3.15745 1.53075 2.84489 1.22601C2.53233 0.921261 2.10841 0.750058 1.66638 0.750058C1.22435 0.750058 0.800426 0.921261 0.487865 1.22601C0.175305 1.53075 -0.00028801 1.94408 -0.00028801 2.37506L-0.00028801 18.6251C-0.00028801 19.056 0.175305 19.4694 0.487865 19.7741C0.800426 20.0789 1.22435 20.2501 1.66638 20.2501Z" fill="#2D2D2D"/>
</svg>
