<svg width="374" height="162" viewBox="0 0 374 162" fill="none" xmlns="http://www.w3.org/2000/svg">
<path d="M7.93081 16.7259H19.6896V62.8829H47.5594V73H7.93081V16.7259ZM57.5085 24.9723C57.5085 28.8155 56.5668 31.8443 54.6834 34.0586C52.8254 36.2729 50.2038 37.711 46.8187 38.3727V34.3641C49.313 33.575 51.031 32.2388 51.9727 30.3554C52.4818 29.2355 52.6981 28.1029 52.6218 26.9576H46.6278V16.9168H57.5085V24.9723ZM98.3435 61.4321H77.6129L73.7188 73H61.4255L81.5071 16.7259H94.793L114.722 73H101.97L98.3435 61.4321ZM95.0602 51.735L88.0355 29.5918L80.7817 51.735H95.0602ZM151.281 51.315V16.7259H163.231V51.315C163.231 57.2962 162.302 61.9539 160.444 65.2881C156.982 71.3965 150.377 74.4508 140.629 74.4508C130.881 74.4508 124.264 71.3965 120.777 65.2881C118.919 61.9539 117.99 57.2962 117.99 51.315V16.7259H129.939V51.315C129.939 55.1837 130.398 58.0088 131.314 59.7905C132.739 62.9465 135.844 64.5245 140.629 64.5245C145.389 64.5245 148.481 62.9465 149.906 59.7905C150.823 58.0088 151.281 55.1837 151.281 51.315ZM297.135 50.9332H284.995V73H273.503V16.7259H301.106C305.051 16.8023 308.08 17.2858 310.192 18.1767C312.33 19.0675 314.137 20.3783 315.613 22.109C316.835 23.5343 317.802 25.1123 318.515 26.843C319.228 28.5738 319.584 30.5463 319.584 32.7606C319.584 35.433 318.909 38.0673 317.56 40.6634C316.212 43.234 313.984 45.0538 310.879 46.1228C313.475 47.1663 315.308 48.6553 316.377 50.5896C317.471 52.4985 318.019 55.4255 318.019 59.3705V63.1501C318.019 65.7208 318.12 67.4642 318.324 68.3805C318.629 69.8312 319.342 70.9002 320.462 71.5874V73H307.52C307.163 71.7529 306.909 70.7475 306.756 69.984C306.451 68.4059 306.285 66.7897 306.26 65.1354L306.183 59.905C306.133 56.3163 305.471 53.9238 304.198 52.7276C302.951 51.5313 300.597 50.9332 297.135 50.9332ZM304.275 40.7016C306.616 39.6326 307.787 37.5201 307.787 34.3641C307.787 30.9535 306.654 28.6628 304.389 27.492C303.117 26.8303 301.208 26.4994 298.662 26.4994H284.995V41.6178H298.319C300.966 41.6178 302.951 41.3124 304.275 40.7016ZM365 48.4135H337.665V62.8829H368.818V73H326.173V16.7259H367.444V26.6903H337.665V38.64H365V48.4135Z" fill="#2D2D2D"/>
<path d="M211.15 31.0911C211.463 31.8209 211.723 32.8113 211.932 34.0623C212.192 35.2612 212.323 36.2516 212.323 37.0334C212.323 39.6397 211.723 42.0375 210.524 44.2268C209.377 46.416 207.866 48.2925 205.989 49.8563C204.113 51.4201 201.976 52.645 199.578 53.5311C197.18 54.4173 194.756 54.8603 192.306 54.8603C190.691 54.8603 189.075 54.5997 187.459 54.0785C185.843 53.5572 184.383 52.7753 183.08 51.7328C181.777 50.6903 180.709 49.3872 179.874 47.8234C179.093 46.2596 178.702 44.4353 178.702 42.3502C178.702 38.5451 180.057 35.0787 182.767 31.9512C185.478 28.7716 189.257 26.061 194.105 23.8196C198.952 21.5261 204.764 19.7539 211.541 18.5029C218.317 17.1997 225.771 16.5481 233.903 16.5481C236.092 16.5481 238.333 16.6003 240.627 16.7045C242.92 16.7567 245.136 16.8348 247.273 16.9391C249.462 16.9912 251.521 17.0694 253.45 17.1737C255.378 17.2258 257.072 17.2779 258.532 17.33C261.138 17.4343 263.015 17.747 264.161 18.2683C265.308 18.7895 265.881 19.8321 265.881 21.3958C265.881 22.9075 265.126 24.0281 263.614 24.7579C262.155 25.4355 259.835 25.7744 256.655 25.7744C255.039 25.7744 253.554 25.7222 252.199 25.618C250.895 25.4616 249.566 25.3052 248.211 25.1488C245.917 25.7744 243.78 26.6605 241.8 27.8072C239.871 28.954 238.02 30.4135 236.248 32.1858C234.528 33.958 232.86 36.0952 231.244 38.5972C229.628 41.0471 227.986 43.914 226.318 47.1979C224.337 51.1594 222.148 54.8082 219.75 58.1442C217.353 61.4282 214.642 64.269 211.619 66.6668C208.596 69.0645 205.234 70.941 201.533 72.2963C197.832 73.5994 193.662 74.251 189.023 74.251C186.99 74.251 185.061 74.0164 183.237 73.5473C181.464 73.1303 179.901 72.5048 178.545 71.6708C177.19 70.7847 176.121 69.69 175.34 68.3869C174.558 67.0838 174.167 65.5982 174.167 63.9302C174.167 63.1483 174.323 62.4185 174.636 61.7409C174.949 61.0111 175.34 60.3856 175.809 59.8644C176.33 59.291 176.929 58.8479 177.607 58.5352C178.337 58.1703 179.093 57.9879 179.874 57.9879C181.23 57.9879 182.377 58.4049 183.315 59.2389C184.305 60.0208 184.8 61.1154 184.8 62.5228C184.8 63.7217 184.488 64.7381 183.862 65.5721C183.289 66.4061 182.455 67.0056 181.36 67.3705C181.673 69.5076 182.533 71.0453 183.94 71.9836C185.4 72.8697 187.12 73.3128 189.101 73.3128C191.446 73.3128 193.583 72.8957 195.512 72.0617C197.441 71.2277 199.213 70.081 200.829 68.6215C202.497 67.162 204.035 65.4679 205.442 63.5392C206.902 61.5585 208.283 59.4734 209.586 57.2842C210.889 55.0949 212.166 52.8535 213.417 50.56C214.72 48.2144 216.05 45.9208 217.405 43.6794C219.073 40.9689 220.923 38.6233 222.956 36.6425C224.989 34.6096 227.178 32.8634 229.524 31.4039C231.87 29.8923 234.346 28.6412 236.952 27.6509C239.558 26.6084 242.243 25.7222 245.005 24.9925V24.8361C243.754 24.784 242.399 24.7058 240.939 24.6015C239.48 24.4973 237.786 24.393 235.857 24.2888C233.981 24.1845 231.818 24.1063 229.368 24.0542C226.97 23.95 224.155 23.95 220.923 24.0542C219.307 24.0542 217.17 24.1324 214.512 24.2888C211.853 24.393 209.013 24.6797 205.989 25.1488C202.966 25.618 199.891 26.2695 196.763 27.1036C193.688 27.8854 190.899 28.954 188.397 30.3093C185.895 31.6645 183.862 33.3325 182.298 35.3133C180.735 37.2419 179.953 39.5876 179.953 42.3502C179.953 43.914 180.344 45.2432 181.126 46.3378C181.907 47.3803 182.898 48.2665 184.097 48.9962C185.348 49.6739 186.729 50.1691 188.241 50.4818C189.804 50.7946 191.368 50.9509 192.932 50.9509C195.121 50.9509 197.31 50.56 199.5 49.7781C201.689 48.9962 203.644 47.9537 205.364 46.6506C207.136 45.3475 208.57 43.8619 209.664 42.1939C210.811 40.4737 211.384 38.7015 211.384 36.8771C211.384 35.9909 211.28 35.0787 211.072 34.1405C210.915 33.1501 210.655 32.2118 210.29 31.3257L211.15 31.0911Z" fill="#FF3737"/>
<path d="M80.0874 100.34C79.6182 100.809 79.097 101.513 78.5236 102.451C77.9502 103.389 77.6635 104.588 77.6635 106.047C77.6635 107.976 78.263 109.54 79.4619 110.739C80.6607 111.938 82.1463 112.537 83.9186 112.537C85.5866 112.537 87.1243 112.094 88.5317 111.208C89.9391 110.27 91.1379 109.097 92.1283 107.689C93.1708 106.282 93.9527 104.744 94.474 103.076C95.0474 101.408 95.334 99.8445 95.334 98.385C95.334 96.4563 94.7867 95.1011 93.6921 94.3192C92.6496 93.4852 91.2161 93.0682 89.3917 93.0682C86.6291 93.0682 83.7883 93.6676 80.8692 94.8665C78.0023 96.0133 75.2136 97.6031 72.5031 99.636C69.8447 101.669 67.3166 104.067 64.9189 106.829C62.5732 109.54 60.5143 112.485 58.742 115.665C57.0218 118.844 55.6405 122.154 54.598 125.594C53.6076 128.983 53.1124 132.371 53.1124 135.759C53.1124 137.427 53.3209 139.017 53.7379 140.528C54.2071 142.04 54.8586 143.369 55.6926 144.516C56.5267 145.663 57.491 146.575 58.5856 147.253C59.7324 147.93 60.9834 148.269 62.3386 148.269C64.3715 148.269 66.3262 147.8 68.2028 146.862C70.1314 145.871 71.8515 144.594 73.3632 143.03C74.8748 141.467 76.0737 139.668 76.9598 137.635C77.8981 135.603 78.3672 133.491 78.3672 131.302C78.3672 130.155 78.2369 129.061 77.9763 128.018C77.7678 126.924 77.4029 125.985 76.8816 125.204C76.4125 124.37 75.787 123.718 75.0051 123.249C74.2754 122.728 73.3632 122.467 72.2685 122.467C70.1835 122.467 68.4894 123.171 67.1863 124.578C65.8832 125.933 64.8667 127.523 64.137 129.348C63.4593 131.172 62.9902 132.944 62.7296 134.664C62.469 136.384 62.3386 137.609 62.3386 138.339H61.4004C61.4004 136.306 61.661 134.195 62.1823 132.006C62.7556 129.817 63.6157 127.81 64.7625 125.985C65.9614 124.109 67.473 122.597 69.2974 121.45C71.1739 120.252 73.3892 119.652 75.9434 119.652C77.3508 119.652 78.6539 119.887 79.8528 120.356C81.0517 120.825 82.0942 121.503 82.9803 122.389C83.8664 123.223 84.5701 124.239 85.0914 125.438C85.6127 126.585 85.8733 127.862 85.8733 129.269C85.8733 131.771 85.1435 134.273 83.684 136.775C82.2766 139.225 80.374 141.415 77.9763 143.343C75.6306 145.272 72.9201 146.836 69.8447 148.034C66.7693 149.233 63.5897 149.833 60.3058 149.833C54.0507 149.833 49.4637 148.321 46.5446 145.298C43.6256 142.222 42.1661 137.896 42.1661 132.319C42.1661 129.087 42.8959 125.855 44.3554 122.623C45.8149 119.339 47.7435 116.212 50.1413 113.241C52.5912 110.27 55.3799 107.507 58.5074 104.953C61.6871 102.347 64.997 100.105 68.4373 98.2286C71.8776 96.3 75.3179 94.8144 78.7582 93.7719C82.1984 92.6773 85.4042 92.1299 88.3753 92.1299C89.9391 92.1299 91.5028 92.2602 93.0666 92.5209C94.6304 92.7294 96.0117 93.1724 97.2106 93.8501C98.4094 94.4756 99.3738 95.3878 100.104 96.5867C100.885 97.7334 101.276 99.2451 101.276 101.122C101.276 102.737 100.859 104.327 100.025 105.891C99.2435 107.403 98.1488 108.758 96.7414 109.957C95.334 111.104 93.6921 112.042 91.8156 112.772C89.9912 113.449 88.0365 113.788 85.9515 113.788C84.7526 113.788 83.5798 113.658 82.433 113.397C81.3384 113.084 80.348 112.615 79.4619 111.99C78.6278 111.364 77.9502 110.582 77.429 109.644C76.9598 108.654 76.7253 107.481 76.7253 106.126C76.7253 105.083 76.9338 104.015 77.3508 102.92C77.8199 101.825 78.5236 100.809 79.4619 99.8706L80.0874 100.34Z" fill="#FF3737"/>
<path d="M109.036 92.3077H120.718V148.582H109.036V92.3077ZM173.312 148.582H161.553L138.57 108.61V148.582H127.613V92.3077H139.945L162.355 131.593V92.3077H173.312V148.582ZM219.568 123.995H192.233V138.465H223.386V148.582H180.741V92.3077H222.012V102.272H192.233V114.222H219.568V123.995ZM195.211 87.8027L202.541 76.3875H214.682L203.075 87.8027H195.211ZM239.405 148.582H228.448V92.3077H245.552L255.784 136.556L265.939 92.3077H282.852V148.582H271.895V110.519C271.895 109.424 271.908 107.897 271.933 105.937C271.958 103.952 271.971 102.425 271.971 101.356L261.32 148.582H249.904L239.329 101.356C239.329 102.425 239.342 103.952 239.367 105.937C239.393 107.897 239.405 109.424 239.405 110.519V148.582ZM322.809 137.014H302.078L298.184 148.582H285.891L305.972 92.3077H319.258L339.187 148.582H326.436L322.809 137.014ZM319.525 127.317L312.501 105.174L305.247 127.317H319.525Z" fill="#2D2D2D"/>
</svg>
