<svg width="59" height="86" viewBox="0 0 59 86" fill="none" xmlns="http://www.w3.org/2000/svg">
<path d="M40.1443 24.2228C39.748 24.6191 39.3078 25.2135 38.8234 26.006C38.3391 26.7985 38.0969 27.8112 38.0969 29.044C38.0969 30.6731 38.6033 31.994 39.616 33.0067C40.6286 34.0193 41.8835 34.5257 43.3805 34.5257C44.7894 34.5257 46.0883 34.1514 47.2771 33.4029C48.4658 32.6104 49.4785 31.6197 50.3151 30.4309C51.1957 29.2422 51.8561 27.9433 52.2964 26.5344C52.7807 25.1254 53.0229 23.8045 53.0229 22.5717C53.0229 20.9426 52.5606 19.7979 51.636 19.1374C50.7554 18.433 49.5446 18.0807 48.0035 18.0807C45.67 18.0807 43.2704 18.5871 40.8047 19.5997C38.3831 20.5684 36.0276 21.9113 33.738 23.6284C31.4926 25.3456 29.3571 27.3709 27.3318 29.7045C25.3505 31.994 23.6113 34.4816 22.1143 37.1674C20.6613 39.8532 19.4946 42.6491 18.614 45.555C17.7774 48.4169 17.3592 51.2788 17.3592 54.1407C17.3592 55.5497 17.5353 56.8925 17.8875 58.1694C18.2838 59.4462 18.8341 60.569 19.5386 61.5376C20.2431 62.5063 21.0576 63.2768 21.9822 63.8492C22.9509 64.4216 24.0076 64.7077 25.1523 64.7077C26.8695 64.7077 28.5206 64.3115 30.1056 63.519C31.7347 62.6824 33.1877 61.6037 34.4645 60.2828C35.7414 58.9619 36.7541 57.4429 37.5026 55.7258C38.2951 54.0086 38.6913 52.2254 38.6913 50.3762C38.6913 49.4076 38.5813 48.483 38.3611 47.6024C38.185 46.6778 37.8768 45.8852 37.4365 45.2248C37.0402 44.5203 36.5119 43.97 35.8515 43.5737C35.235 43.1334 34.4645 42.9132 33.5399 42.9132C31.7787 42.9132 30.3478 43.5076 29.2471 44.6964C28.1463 45.8412 27.2878 47.1841 26.6713 48.7251C26.099 50.2661 25.7027 51.7631 25.4826 53.2161C25.2624 54.6691 25.1523 55.7038 25.1523 56.3202H24.3598C24.3598 54.603 24.58 52.8198 25.0202 50.9706C25.5046 49.1214 26.2311 47.4263 27.1997 45.8852C28.2124 44.3002 29.4892 43.0233 31.0302 42.0547C32.6153 41.042 34.4865 40.5357 36.644 40.5357C37.8328 40.5357 38.9335 40.7338 39.9462 41.1301C40.9588 41.5263 41.8394 42.0987 42.5879 42.8472C43.3364 43.5517 43.9308 44.4102 44.3711 45.4229C44.8114 46.3916 45.0316 47.4703 45.0316 48.6591C45.0316 50.7725 44.4152 52.8859 43.1823 54.9993C41.9935 57.0687 40.3865 58.9179 38.3611 60.547C36.3798 62.1761 34.0903 63.4969 31.4926 64.5096C28.8948 65.5223 26.209 66.0286 23.4352 66.0286C18.1517 66.0286 14.2771 64.7518 11.8115 62.1981C9.34582 59.6004 8.113 55.9459 8.113 51.2348C8.113 48.505 8.72941 45.7752 9.96223 43.0453C11.1951 40.2715 12.8241 37.6297 14.8495 35.1201C16.9189 32.6104 19.2744 30.2768 21.9162 28.1194C24.602 25.9179 27.3978 24.0247 30.3038 22.4396C33.2097 20.8105 36.1156 19.5557 39.0216 18.6751C41.9275 17.7505 44.6353 17.2882 47.145 17.2882C48.4658 17.2882 49.7867 17.3983 51.1076 17.6184C52.4285 17.7945 53.5953 18.1688 54.6079 18.7412C55.6206 19.2695 56.4351 20.04 57.0516 21.0527C57.712 22.0214 58.0422 23.2982 58.0422 24.8833C58.0422 26.2482 57.69 27.5911 56.9855 28.9119C56.3251 30.1888 55.4005 31.3335 54.2117 32.3462C53.0229 33.3149 51.636 34.1074 50.0509 34.7238C48.5099 35.2962 46.8588 35.5824 45.0976 35.5824C44.0849 35.5824 43.0943 35.4723 42.1256 35.2522C41.201 34.988 40.3645 34.5917 39.616 34.0634C38.9115 33.535 38.3391 32.8746 37.8988 32.082C37.5025 31.2455 37.3044 30.2548 37.3044 29.1101C37.3044 28.2295 37.4805 27.3269 37.8328 26.4023C38.229 25.4777 38.8234 24.6191 39.616 23.8266L40.1443 24.2228Z" fill="white"/>
<path d="M18.5738 8.47985H24.5332V31.8726H38.6578V37H18.5738V8.47985Z" fill="white"/>
</svg>
